<?xml version="1.0" encoding="UTF-8" standalone="no"?>
<!DOCTYPE svg PUBLIC "-//W3C//DTD SVG 1.1//EN"
 "http://www.w3.org/Graphics/SVG/1.1/DTD/svg11.dtd">
<!-- Generated by graphviz version 2.40.1 (20161225.0304)
 -->
<!-- Title: odp_ipsec_capability_t Pages: 1 -->
<svg width="452pt" height="95pt"
 viewBox="0.00 0.00 451.50 95.00" xmlns="http://www.w3.org/2000/svg" xmlns:xlink="http://www.w3.org/1999/xlink">
<g id="graph0" class="graph" transform="scale(1 1) rotate(0) translate(4 91)">
<title>odp_ipsec_capability_t</title>
<polygon fill="#ffffff" stroke="transparent" points="-4,4 -4,-91 447.5,-91 447.5,4 -4,4"/>
<!-- Node1 -->
<g id="node1" class="node">
<title>Node1</title>
<polygon fill="#bfbfbf" stroke="#000000" points="150.5,-.5 150.5,-19.5 278.5,-19.5 278.5,-.5 150.5,-.5"/>
<text text-anchor="middle" x="214.5" y="-7.5" font-family="Helvetica,sans-Serif" font-size="10.00" fill="#000000">odp_ipsec_capability_t</text>
</g>
<!-- Node2 -->
<g id="node2" class="node">
<title>Node2</title>
<g id="a_node2"><a xlink:href="unionodp__proto__chksums__t.html" target="_top" xlink:title="Flags to control packet data checksum checking. ">
<polygon fill="#ffffff" stroke="#000000" points="0,-67.5 0,-86.5 123,-86.5 123,-67.5 0,-67.5"/>
<text text-anchor="middle" x="61.5" y="-74.5" font-family="Helvetica,sans-Serif" font-size="10.00" fill="#000000">odp_proto_chksums_t</text>
</a>
</g>
</g>
<!-- Node2&#45;&gt;Node1 -->
<g id="edge1" class="edge">
<title>Node2&#45;&gt;Node1</title>
<path fill="none" stroke="#9a32cd" stroke-dasharray="5,2" d="M92.191,-63.3045C109.0821,-55.7906 130.4271,-46.3341 149.5,-38 163.6866,-31.801 179.6545,-24.9212 192.2134,-19.5324"/>
<polygon fill="#9a32cd" stroke="#9a32cd" points="90.5229,-60.2159 82.8112,-67.4809 93.3703,-66.6106 90.5229,-60.2159"/>
<text text-anchor="middle" x="180" y="-41" font-family="Helvetica,sans-Serif" font-size="10.00" fill="#000000"> chksums_in</text>
</g>
<!-- Node3 -->
<g id="node3" class="node">
<title>Node3</title>
<g id="a_node3"><a xlink:href="unionodp__crypto__cipher__algos__t.html" target="_top" xlink:title="Cipher algorithms in a bit field structure. ">
<polygon fill="#ffffff" stroke="#000000" points="141.5,-67.5 141.5,-86.5 287.5,-86.5 287.5,-67.5 141.5,-67.5"/>
<text text-anchor="middle" x="214.5" y="-74.5" font-family="Helvetica,sans-Serif" font-size="10.00" fill="#000000">odp_crypto_cipher_algos_t</text>
</a>
</g>
</g>
<!-- Node3&#45;&gt;Node1 -->
<g id="edge2" class="edge">
<title>Node3&#45;&gt;Node1</title>
<path fill="none" stroke="#9a32cd" stroke-dasharray="5,2" d="M214.5,-57.1079C214.5,-44.714 214.5,-29.3263 214.5,-19.5817"/>
<polygon fill="#9a32cd" stroke="#9a32cd" points="211.0001,-57.4005 214.5,-67.4005 218.0001,-57.4006 211.0001,-57.4005"/>
<text text-anchor="middle" x="234" y="-41" font-family="Helvetica,sans-Serif" font-size="10.00" fill="#000000"> ciphers</text>
</g>
<!-- Node4 -->
<g id="node4" class="node">
<title>Node4</title>
<g id="a_node4"><a xlink:href="unionodp__crypto__auth__algos__t.html" target="_top" xlink:title="Authentication algorithms in a bit field structure. ">
<polygon fill="#ffffff" stroke="#000000" points="305.5,-67.5 305.5,-86.5 443.5,-86.5 443.5,-67.5 305.5,-67.5"/>
<text text-anchor="middle" x="374.5" y="-74.5" font-family="Helvetica,sans-Serif" font-size="10.00" fill="#000000">odp_crypto_auth_algos_t</text>
</a>
</g>
</g>
<!-- Node4&#45;&gt;Node1 -->
<g id="edge3" class="edge">
<title>Node4&#45;&gt;Node1</title>
<path fill="none" stroke="#9a32cd" stroke-dasharray="5,2" d="M342.0507,-63.4118C310.9526,-50.3895 264.8079,-31.0664 237.3816,-19.5817"/>
<polygon fill="#9a32cd" stroke="#9a32cd" points="341.0001,-66.7663 351.5759,-67.4005 343.7039,-60.3096 341.0001,-66.7663"/>
<text text-anchor="middle" x="319" y="-41" font-family="Helvetica,sans-Serif" font-size="10.00" fill="#000000"> auths</text>
</g>
</g>
</svg>
