<?xml version="1.0" encoding="UTF-8" standalone="no"?>
<!DOCTYPE svg PUBLIC "-//W3C//DTD SVG 1.1//EN"
 "http://www.w3.org/Graphics/SVG/1.1/DTD/svg11.dtd">
<!-- Generated by graphviz version 2.40.1 (20161225.0304)
 -->
<!-- Title: chksum.h Pages: 1 -->
<svg width="144pt" height="140pt"
 viewBox="0.00 0.00 143.50 140.00" xmlns="http://www.w3.org/2000/svg" xmlns:xlink="http://www.w3.org/1999/xlink">
<g id="graph0" class="graph" transform="scale(1 1) rotate(0) translate(4 136)">
<title>chksum.h</title>
<polygon fill="#ffffff" stroke="transparent" points="-4,4 -4,-136 139.5,-136 139.5,4 -4,4"/>
<!-- Node2 -->
<g id="node1" class="node">
<title>Node2</title>
<polygon fill="#bfbfbf" stroke="#000000" points="31.5,-112.5 31.5,-131.5 95.5,-131.5 95.5,-112.5 31.5,-112.5"/>
<text text-anchor="middle" x="63.5" y="-119.5" font-family="Helvetica,sans-Serif" font-size="10.00" fill="#000000">chksum.h</text>
</g>
<!-- Node3 -->
<g id="node2" class="node">
<title>Node3</title>
<g id="a_node2"><a xlink:href="ip_8h.html" target="_top" xlink:title="ODP IP header. ">
<polygon fill="#ffffff" stroke="#000000" points="0,-56.5 0,-75.5 35,-75.5 35,-56.5 0,-56.5"/>
<text text-anchor="middle" x="17.5" y="-63.5" font-family="Helvetica,sans-Serif" font-size="10.00" fill="#000000">ip.h</text>
</a>
</g>
</g>
<!-- Node2&#45;&gt;Node3 -->
<g id="edge1" class="edge">
<title>Node2&#45;&gt;Node3</title>
<path fill="none" stroke="#191970" d="M49.1253,-104.5004C41.3029,-94.9775 31.924,-83.5596 25.4208,-75.6427"/>
<polygon fill="#191970" stroke="#191970" points="46.4354,-106.7399 55.4874,-112.2455 51.8445,-102.2967 46.4354,-106.7399"/>
</g>
<!-- Node4 -->
<g id="node3" class="node">
<title>Node4</title>
<g id="a_node3"><a xlink:href="odph__api_8h.html" target="_top" xlink:title="The OpenDataPlane helper API. ">
<polygon fill="#ffffff" stroke="#000000" points="28.5,-.5 28.5,-19.5 98.5,-19.5 98.5,-.5 28.5,-.5"/>
<text text-anchor="middle" x="63.5" y="-7.5" font-family="Helvetica,sans-Serif" font-size="10.00" fill="#000000">odph_api.h</text>
</a>
</g>
</g>
<!-- Node2&#45;&gt;Node4 -->
<g id="edge3" class="edge">
<title>Node2&#45;&gt;Node4</title>
<path fill="none" stroke="#191970" d="M63.5,-102.2702C63.5,-77.9985 63.5,-37.7725 63.5,-19.5249"/>
<polygon fill="#191970" stroke="#191970" points="60.0001,-102.4509 63.5,-112.4509 67.0001,-102.451 60.0001,-102.4509"/>
</g>
<!-- Node5 -->
<g id="node4" class="node">
<title>Node5</title>
<g id="a_node4"><a xlink:href="udp_8h.html" target="_top" xlink:title="ODP UDP header. ">
<polygon fill="#ffffff" stroke="#000000" points="91.5,-56.5 91.5,-75.5 135.5,-75.5 135.5,-56.5 91.5,-56.5"/>
<text text-anchor="middle" x="113.5" y="-63.5" font-family="Helvetica,sans-Serif" font-size="10.00" fill="#000000">udp.h</text>
</a>
</g>
</g>
<!-- Node2&#45;&gt;Node5 -->
<g id="edge4" class="edge">
<title>Node2&#45;&gt;Node5</title>
<path fill="none" stroke="#191970" d="M79.1247,-104.5004C87.6273,-94.9775 97.8218,-83.5596 104.8905,-75.6427"/>
<polygon fill="#191970" stroke="#191970" points="76.2587,-102.4551 72.2093,-112.2455 81.4803,-107.1172 76.2587,-102.4551"/>
</g>
<!-- Node3&#45;&gt;Node4 -->
<g id="edge2" class="edge">
<title>Node3&#45;&gt;Node4</title>
<path fill="none" stroke="#191970" d="M31.8747,-48.5004C39.6971,-38.9775 49.076,-27.5596 55.5792,-19.6427"/>
<polygon fill="#191970" stroke="#191970" points="29.1555,-46.2967 25.5126,-56.2455 34.5646,-50.7399 29.1555,-46.2967"/>
</g>
<!-- Node5&#45;&gt;Node4 -->
<g id="edge5" class="edge">
<title>Node5&#45;&gt;Node4</title>
<path fill="none" stroke="#191970" d="M97.8753,-48.5004C89.3727,-38.9775 79.1782,-27.5596 72.1095,-19.6427"/>
<polygon fill="#191970" stroke="#191970" points="95.5197,-51.1172 104.7907,-56.2455 100.7413,-46.4551 95.5197,-51.1172"/>
</g>
</g>
</svg>
