<?xml version="1.0" encoding="UTF-8" standalone="no"?>
<!DOCTYPE svg PUBLIC "-//W3C//DTD SVG 1.1//EN"
 "http://www.w3.org/Graphics/SVG/1.1/DTD/svg11.dtd">
<!-- Generated by graphviz version 2.40.1 (20161225.0304)
 -->
<!-- Title: odph_api.h Pages: 1 -->
<svg width="2148pt" height="196pt"
 viewBox="0.00 0.00 2147.50 196.00" xmlns="http://www.w3.org/2000/svg" xmlns:xlink="http://www.w3.org/1999/xlink">
<g id="graph0" class="graph" transform="scale(1 1) rotate(0) translate(4 192)">
<title>odph_api.h</title>
<polygon fill="#ffffff" stroke="transparent" points="-4,4 -4,-192 2143.5,-192 2143.5,4 -4,4"/>
<!-- Node0 -->
<g id="node1" class="node">
<title>Node0</title>
<polygon fill="#bfbfbf" stroke="#000000" points="1168.5,-168.5 1168.5,-187.5 1238.5,-187.5 1238.5,-168.5 1168.5,-168.5"/>
<text text-anchor="middle" x="1203.5" y="-175.5" font-family="Helvetica,sans-Serif" font-size="10.00" fill="#000000">odph_api.h</text>
</g>
<!-- Node1 -->
<g id="node2" class="node">
<title>Node1</title>
<g id="a_node2"><a xlink:href="odph__debug_8h.html" target="_top" xlink:title="Helper debug. ">
<polygon fill="#ffffff" stroke="#000000" points="111.5,-112.5 111.5,-131.5 251.5,-131.5 251.5,-112.5 111.5,-112.5"/>
<text text-anchor="middle" x="181.5" y="-119.5" font-family="Helvetica,sans-Serif" font-size="10.00" fill="#000000">odp/helper/odph_debug.h</text>
</a>
</g>
</g>
<!-- Node0&#45;&gt;Node1 -->
<g id="edge1" class="edge">
<title>Node0&#45;&gt;Node1</title>
<path fill="none" stroke="#191970" d="M1168.2312,-176.6102C1047.3522,-171.7596 638.6463,-154.6387 301.5,-132 288.6182,-131.135 274.968,-130.1054 261.6697,-129.0409"/>
<polygon fill="#191970" stroke="#191970" points="261.8381,-125.5432 251.5876,-128.2223 261.2715,-132.5202 261.8381,-125.5432"/>
</g>
<!-- Node5 -->
<g id="node6" class="node">
<title>Node5</title>
<g id="a_node6"><a xlink:href="chksum_8h.html" target="_top" xlink:title="ODP checksum helper. ">
<polygon fill="#ffffff" stroke="#000000" points="1413,-56.5 1413,-75.5 1532,-75.5 1532,-56.5 1413,-56.5"/>
<text text-anchor="middle" x="1472.5" y="-63.5" font-family="Helvetica,sans-Serif" font-size="10.00" fill="#000000">odp/helper/chksum.h</text>
</a>
</g>
</g>
<!-- Node0&#45;&gt;Node5 -->
<g id="edge5" class="edge">
<title>Node0&#45;&gt;Node5</title>
<path fill="none" stroke="#191970" d="M1238.7442,-171.1942C1272.6592,-163.9379 1324.9226,-150.8768 1367.5,-132 1398.5346,-118.2407 1431.1701,-96.3947 1451.6624,-81.6422"/>
<polygon fill="#191970" stroke="#191970" points="1453.9098,-84.3348 1459.9176,-75.6081 1449.779,-78.6836 1453.9098,-84.3348"/>
</g>
<!-- Node7 -->
<g id="node8" class="node">
<title>Node7</title>
<g id="a_node8"><a xlink:href="odph__cuckootable_8h.html" target="_top" xlink:title="ODP Cuckoo Hash Table. ">
<polygon fill="#ffffff" stroke="#000000" points="537,-112.5 537,-131.5 706,-131.5 706,-112.5 537,-112.5"/>
<text text-anchor="middle" x="621.5" y="-119.5" font-family="Helvetica,sans-Serif" font-size="10.00" fill="#000000">odp/helper/odph_cuckootable.h</text>
</a>
</g>
</g>
<!-- Node0&#45;&gt;Node7 -->
<g id="edge7" class="edge">
<title>Node0&#45;&gt;Node7</title>
<path fill="none" stroke="#191970" d="M1168.2692,-174.736C1088.4098,-167.3188 887.4992,-148.5546 719.5,-132 718.415,-131.8931 717.3232,-131.7853 716.2258,-131.6767"/>
<polygon fill="#191970" stroke="#191970" points="716.5184,-128.1887 706.2212,-130.682 715.8258,-135.1543 716.5184,-128.1887"/>
</g>
<!-- Node8 -->
<g id="node9" class="node">
<title>Node8</title>
<g id="a_node9"><a xlink:href="table_8h.html" target="_top" xlink:title="ODP table. ">
<polygon fill="#ffffff" stroke="#000000" points="668,-56.5 668,-75.5 773,-75.5 773,-56.5 668,-56.5"/>
<text text-anchor="middle" x="720.5" y="-63.5" font-family="Helvetica,sans-Serif" font-size="10.00" fill="#000000">odp/helper/table.h</text>
</a>
</g>
</g>
<!-- Node0&#45;&gt;Node8 -->
<g id="edge37" class="edge">
<title>Node0&#45;&gt;Node8</title>
<path fill="none" stroke="#191970" d="M1168.3274,-176.3725C1068.1507,-171.4667 786.3562,-155.6876 752.5,-132 737.0513,-121.1913 728.7684,-100.8077 724.53,-85.5405"/>
<polygon fill="#191970" stroke="#191970" points="727.8641,-84.4366 722.1141,-75.5379 721.0598,-86.0802 727.8641,-84.4366"/>
</g>
<!-- Node10 -->
<g id="node11" class="node">
<title>Node10</title>
<g id="a_node11"><a xlink:href="strong__types_8h.html" target="_top" xlink:title="ODP Strong Types. ">
<polygon fill="#ffffff" stroke="#000000" points="433,-.5 433,-19.5 576,-19.5 576,-.5 433,-.5"/>
<text text-anchor="middle" x="504.5" y="-7.5" font-family="Helvetica,sans-Serif" font-size="10.00" fill="#000000">odp/helper/strong_types.h</text>
</a>
</g>
</g>
<!-- Node0&#45;&gt;Node10 -->
<g id="edge34" class="edge">
<title>Node0&#45;&gt;Node10</title>
<path fill="none" stroke="#191970" d="M1168.3263,-177.475C1009.2621,-174.9327 363.6596,-162.744 334.5,-132 288.8451,-83.8645 394.8433,-42.3197 459.3566,-22.4589"/>
<polygon fill="#191970" stroke="#191970" points="460.3717,-25.8086 468.9378,-19.5738 458.3533,-19.1059 460.3717,-25.8086"/>
</g>
<!-- Node11 -->
<g id="node12" class="node">
<title>Node11</title>
<g id="a_node12"><a xlink:href="eth_8h.html" target="_top" xlink:title="ODP ethernet header. ">
<polygon fill="#ffffff" stroke="#000000" points="829.5,-56.5 829.5,-75.5 925.5,-75.5 925.5,-56.5 829.5,-56.5"/>
<text text-anchor="middle" x="877.5" y="-63.5" font-family="Helvetica,sans-Serif" font-size="10.00" fill="#000000">odp/helper/eth.h</text>
</a>
</g>
</g>
<!-- Node0&#45;&gt;Node11 -->
<g id="edge11" class="edge">
<title>Node0&#45;&gt;Node11</title>
<path fill="none" stroke="#191970" d="M1190.9737,-168.3294C1169.4231,-151.8595 1125.9661,-119.4232 1108.5,-112 1092.7374,-105.3008 998.6703,-87.6686 935.5412,-76.2826"/>
<polygon fill="#191970" stroke="#191970" points="936.1533,-72.8366 925.6917,-74.5114 934.9144,-79.7261 936.1533,-72.8366"/>
</g>
<!-- Node12 -->
<g id="node13" class="node">
<title>Node12</title>
<g id="a_node13"><a xlink:href="gtp_8h.html" target="_top" xlink:title="ODP GTP header. ">
<polygon fill="#ffffff" stroke="#000000" points="943.5,-56.5 943.5,-75.5 1039.5,-75.5 1039.5,-56.5 943.5,-56.5"/>
<text text-anchor="middle" x="991.5" y="-63.5" font-family="Helvetica,sans-Serif" font-size="10.00" fill="#000000">odp/helper/gtp.h</text>
</a>
</g>
</g>
<!-- Node0&#45;&gt;Node12 -->
<g id="edge13" class="edge">
<title>Node0&#45;&gt;Node12</title>
<path fill="none" stroke="#191970" d="M1197.0412,-168.4361C1186.8772,-154.1045 1165.7861,-127.1282 1141.5,-112 1113.6833,-94.6725 1078.8812,-83.4717 1049.8037,-76.4659"/>
<polygon fill="#191970" stroke="#191970" points="1050.3084,-72.9907 1039.7783,-74.1597 1048.7391,-79.8125 1050.3084,-72.9907"/>
</g>
<!-- Node13 -->
<g id="node14" class="node">
<title>Node13</title>
<g id="a_node14"><a xlink:href="odph__hashtable_8h.html" target="_top" xlink:title="ODP Hash Table. ">
<polygon fill="#ffffff" stroke="#000000" points="761.5,-112.5 761.5,-131.5 919.5,-131.5 919.5,-112.5 761.5,-112.5"/>
<text text-anchor="middle" x="840.5" y="-119.5" font-family="Helvetica,sans-Serif" font-size="10.00" fill="#000000">odp/helper/odph_hashtable.h</text>
</a>
</g>
</g>
<!-- Node0&#45;&gt;Node13 -->
<g id="edge15" class="edge">
<title>Node0&#45;&gt;Node13</title>
<path fill="none" stroke="#191970" d="M1168.3642,-172.5796C1109.4464,-163.4904 989.5998,-145.0016 912.2791,-133.0734"/>
<polygon fill="#191970" stroke="#191970" points="912.5477,-129.5735 902.131,-131.5078 911.4804,-136.4916 912.5477,-129.5735"/>
</g>
<!-- Node14 -->
<g id="node15" class="node">
<title>Node14</title>
<g id="a_node15"><a xlink:href="icmp_8h.html" target="_top" xlink:title="ODP ICMP header. ">
<polygon fill="#ffffff" stroke="#000000" points="1057.5,-56.5 1057.5,-75.5 1161.5,-75.5 1161.5,-56.5 1057.5,-56.5"/>
<text text-anchor="middle" x="1109.5" y="-63.5" font-family="Helvetica,sans-Serif" font-size="10.00" fill="#000000">odp/helper/icmp.h</text>
</a>
</g>
</g>
<!-- Node0&#45;&gt;Node14 -->
<g id="edge17" class="edge">
<title>Node0&#45;&gt;Node14</title>
<path fill="none" stroke="#191970" d="M1201.9227,-168.0934C1199.3061,-154.2818 1192.9615,-129.0231 1179.5,-112 1169.0932,-98.8398 1153.8486,-88.1984 1140.2407,-80.4786"/>
<polygon fill="#191970" stroke="#191970" points="1141.6273,-77.2506 1131.1609,-75.6057 1138.3171,-83.4185 1141.6273,-77.2506"/>
</g>
<!-- Node15 -->
<g id="node16" class="node">
<title>Node15</title>
<g id="a_node16"><a xlink:href="igmp_8h.html" target="_top" xlink:title="ODP IGMP header. ">
<polygon fill="#ffffff" stroke="#000000" points="1180,-56.5 1180,-75.5 1285,-75.5 1285,-56.5 1180,-56.5"/>
<text text-anchor="middle" x="1232.5" y="-63.5" font-family="Helvetica,sans-Serif" font-size="10.00" fill="#000000">odp/helper/igmp.h</text>
</a>
</g>
</g>
<!-- Node0&#45;&gt;Node15 -->
<g id="edge19" class="edge">
<title>Node0&#45;&gt;Node15</title>
<path fill="none" stroke="#191970" d="M1206.7104,-168.1882C1209.6911,-158.9149 1214.159,-144.5867 1217.5,-132 1221.5981,-116.5613 1225.5735,-98.9088 1228.4009,-85.7468"/>
<polygon fill="#191970" stroke="#191970" points="1231.8398,-86.4018 1230.4835,-75.8941 1224.9911,-84.9541 1231.8398,-86.4018"/>
</g>
<!-- Node16 -->
<g id="node17" class="node">
<title>Node16</title>
<g id="a_node17"><a xlink:href="ip_8h.html" target="_top" xlink:title="ODP IP header. ">
<polygon fill="#ffffff" stroke="#000000" points="1270,-112.5 1270,-131.5 1359,-131.5 1359,-112.5 1270,-112.5"/>
<text text-anchor="middle" x="1314.5" y="-119.5" font-family="Helvetica,sans-Serif" font-size="10.00" fill="#000000">odp/helper/ip.h</text>
</a>
</g>
</g>
<!-- Node0&#45;&gt;Node16 -->
<g id="edge21" class="edge">
<title>Node0&#45;&gt;Node16</title>
<path fill="none" stroke="#191970" d="M1222.5816,-168.3733C1240.2402,-159.4644 1266.7053,-146.1127 1286.7098,-136.0203"/>
<polygon fill="#191970" stroke="#191970" points="1288.3158,-139.1303 1295.6674,-131.5011 1285.1628,-132.8806 1288.3158,-139.1303"/>
</g>
<!-- Node18 -->
<g id="node19" class="node">
<title>Node18</title>
<g id="a_node19"><a xlink:href="ipsec_8h.html" target="_top" xlink:title="ODP IPSec headers. ">
<polygon fill="#ffffff" stroke="#000000" points="1531.5,-112.5 1531.5,-131.5 1637.5,-131.5 1637.5,-112.5 1531.5,-112.5"/>
<text text-anchor="middle" x="1584.5" y="-119.5" font-family="Helvetica,sans-Serif" font-size="10.00" fill="#000000">odp/helper/ipsec.h</text>
</a>
</g>
</g>
<!-- Node0&#45;&gt;Node18 -->
<g id="edge25" class="edge">
<title>Node0&#45;&gt;Node18</title>
<path fill="none" stroke="#191970" d="M1238.9325,-173.0876C1296.0548,-165.1251 1412.3015,-148.7447 1521.2309,-132.1749"/>
<polygon fill="#191970" stroke="#191970" points="1522.0512,-135.5904 1531.4093,-130.6228 1520.9959,-128.6704 1522.0512,-135.5904"/>
</g>
<!-- Node19 -->
<g id="node20" class="node">
<title>Node19</title>
<g id="a_node20"><a xlink:href="odph__lineartable_8h.html" target="_top" xlink:title="ODP Linear Table. ">
<polygon fill="#ffffff" stroke="#000000" points="937.5,-112.5 937.5,-131.5 1099.5,-131.5 1099.5,-112.5 937.5,-112.5"/>
<text text-anchor="middle" x="1018.5" y="-119.5" font-family="Helvetica,sans-Serif" font-size="10.00" fill="#000000">odp/helper/odph_lineartable.h</text>
</a>
</g>
</g>
<!-- Node0&#45;&gt;Node19 -->
<g id="edge27" class="edge">
<title>Node0&#45;&gt;Node19</title>
<path fill="none" stroke="#191970" d="M1171.6974,-168.3733C1140.6683,-158.9807 1093.3246,-144.6496 1059.4853,-134.4064"/>
<polygon fill="#191970" stroke="#191970" points="1060.4728,-131.0485 1049.8876,-131.5011 1058.4447,-137.7483 1060.4728,-131.0485"/>
</g>
<!-- Node20 -->
<g id="node21" class="node">
<title>Node20</title>
<g id="a_node21"><a xlink:href="odph__iplookuptable_8h.html" target="_top" xlink:title="ODP IP Lookup Table. ">
<polygon fill="#ffffff" stroke="#000000" points="343.5,-112.5 343.5,-131.5 519.5,-131.5 519.5,-112.5 343.5,-112.5"/>
<text text-anchor="middle" x="431.5" y="-119.5" font-family="Helvetica,sans-Serif" font-size="10.00" fill="#000000">odp/helper/odph_iplookuptable.h</text>
</a>
</g>
</g>
<!-- Node0&#45;&gt;Node20 -->
<g id="edge30" class="edge">
<title>Node0&#45;&gt;Node20</title>
<path fill="none" stroke="#191970" d="M1168.2785,-176.0499C1069.33,-170.4764 780.2053,-153.5393 529.6558,-132.1638"/>
<polygon fill="#191970" stroke="#191970" points="529.8977,-128.6717 519.6352,-131.3047 529.2997,-135.6462 529.8977,-128.6717"/>
</g>
<!-- Node21 -->
<g id="node22" class="node">
<title>Node21</title>
<g id="a_node22"><a xlink:href="sctp_8h.html" target="_top" xlink:title="ODP SCTP header. ">
<polygon fill="#ffffff" stroke="#000000" points="1656,-112.5 1656,-131.5 1757,-131.5 1757,-112.5 1656,-112.5"/>
<text text-anchor="middle" x="1706.5" y="-119.5" font-family="Helvetica,sans-Serif" font-size="10.00" fill="#000000">odp/helper/sctp.h</text>
</a>
</g>
</g>
<!-- Node0&#45;&gt;Node21 -->
<g id="edge32" class="edge">
<title>Node0&#45;&gt;Node21</title>
<path fill="none" stroke="#191970" d="M1238.6186,-175.0951C1312.0531,-168.8613 1487.4124,-153.1437 1645.4134,-132.0724"/>
<polygon fill="#191970" stroke="#191970" points="1646.3498,-135.4781 1655.7942,-130.6768 1645.417,-128.5405 1646.3498,-135.4781"/>
</g>
<!-- Node22 -->
<g id="node23" class="node">
<title>Node22</title>
<g id="a_node23"><a xlink:href="tcp_8h.html" target="_top" xlink:title="ODP TCP header. ">
<polygon fill="#ffffff" stroke="#000000" points="1775,-112.5 1775,-131.5 1870,-131.5 1870,-112.5 1775,-112.5"/>
<text text-anchor="middle" x="1822.5" y="-119.5" font-family="Helvetica,sans-Serif" font-size="10.00" fill="#000000">odp/helper/tcp.h</text>
</a>
</g>
</g>
<!-- Node0&#45;&gt;Node22 -->
<g id="edge35" class="edge">
<title>Node0&#45;&gt;Node22</title>
<path fill="none" stroke="#191970" d="M1238.7988,-176.2418C1326.1369,-171.6501 1559.4927,-157.911 1764.8956,-131.9614"/>
<polygon fill="#191970" stroke="#191970" points="1765.4876,-135.4143 1774.9641,-130.6766 1764.6015,-128.4706 1765.4876,-135.4143"/>
</g>
<!-- Node23 -->
<g id="node24" class="node">
<title>Node23</title>
<g id="a_node24"><a xlink:href="threads_8h.html" target="_top" xlink:title="ODP Linux helper API. ">
<polygon fill="#ffffff" stroke="#000000" points="1888,-112.5 1888,-131.5 2005,-131.5 2005,-112.5 1888,-112.5"/>
<text text-anchor="middle" x="1946.5" y="-119.5" font-family="Helvetica,sans-Serif" font-size="10.00" fill="#000000">odp/helper/threads.h</text>
</a>
</g>
</g>
<!-- Node0&#45;&gt;Node23 -->
<g id="edge38" class="edge">
<title>Node0&#45;&gt;Node23</title>
<path fill="none" stroke="#191970" d="M1238.7198,-176.5696C1337.6528,-172.3455 1626.6587,-158.5932 1877.8835,-131.9824"/>
<polygon fill="#191970" stroke="#191970" points="1878.36,-135.4515 1887.9316,-130.909 1877.6164,-128.4911 1878.36,-135.4515"/>
</g>
<!-- Node27 -->
<g id="node28" class="node">
<title>Node27</title>
<g id="a_node28"><a xlink:href="udp_8h.html" target="_top" xlink:title="ODP UDP header. ">
<polygon fill="#ffffff" stroke="#000000" points="1415.5,-112.5 1415.5,-131.5 1513.5,-131.5 1513.5,-112.5 1415.5,-112.5"/>
<text text-anchor="middle" x="1464.5" y="-119.5" font-family="Helvetica,sans-Serif" font-size="10.00" fill="#000000">odp/helper/udp.h</text>
</a>
</g>
</g>
<!-- Node0&#45;&gt;Node27 -->
<g id="edge43" class="edge">
<title>Node0&#45;&gt;Node27</title>
<path fill="none" stroke="#191970" d="M1238.6996,-170.4476C1282.6605,-161.0154 1358.3458,-144.7764 1409.8646,-133.7225"/>
<polygon fill="#191970" stroke="#191970" points="1410.7863,-137.1045 1419.8295,-131.5845 1409.3178,-130.2603 1410.7863,-137.1045"/>
</g>
<!-- Node28 -->
<g id="node29" class="node">
<title>Node28</title>
<g id="a_node29"><a xlink:href="version_8h.html" target="_top" xlink:title="ODP helper version. ">
<polygon fill="#ffffff" stroke="#000000" points="2023.5,-112.5 2023.5,-131.5 2139.5,-131.5 2139.5,-112.5 2023.5,-112.5"/>
<text text-anchor="middle" x="2081.5" y="-119.5" font-family="Helvetica,sans-Serif" font-size="10.00" fill="#000000">odp/helper/version.h</text>
</a>
</g>
</g>
<!-- Node0&#45;&gt;Node28 -->
<g id="edge46" class="edge">
<title>Node0&#45;&gt;Node28</title>
<path fill="none" stroke="#191970" d="M1238.7205,-177.123C1350.4238,-174.1041 1706.9052,-162.646 2013.3396,-131.915"/>
<polygon fill="#191970" stroke="#191970" points="2013.7071,-135.3958 2023.304,-130.9071 2013.0025,-128.4313 2013.7071,-135.3958"/>
</g>
<!-- Node2 -->
<g id="node3" class="node">
<title>Node2</title>
<polygon fill="#ffffff" stroke="#bfbfbf" points="71.5,-56.5 71.5,-75.5 219.5,-75.5 219.5,-56.5 71.5,-56.5"/>
<text text-anchor="middle" x="145.5" y="-63.5" font-family="Helvetica,sans-Serif" font-size="10.00" fill="#000000">odp/autoheader_external.h</text>
</g>
<!-- Node1&#45;&gt;Node2 -->
<g id="edge2" class="edge">
<title>Node1&#45;&gt;Node2</title>
<path fill="none" stroke="#191970" d="M175.2293,-112.2455C170.2736,-104.5367 163.217,-93.5598 157.2224,-84.2348"/>
<polygon fill="#191970" stroke="#191970" points="160.0506,-82.1618 151.6989,-75.6427 154.1624,-85.9471 160.0506,-82.1618"/>
</g>
<!-- Node3 -->
<g id="node4" class="node">
<title>Node3</title>
<polygon fill="#ffffff" stroke="#bfbfbf" points="237.5,-56.5 237.5,-75.5 287.5,-75.5 287.5,-56.5 237.5,-56.5"/>
<text text-anchor="middle" x="262.5" y="-63.5" font-family="Helvetica,sans-Serif" font-size="10.00" fill="#000000">stdio.h</text>
</g>
<!-- Node1&#45;&gt;Node3 -->
<g id="edge3" class="edge">
<title>Node1&#45;&gt;Node3</title>
<path fill="none" stroke="#191970" d="M195.6091,-112.2455C207.9209,-103.7337 225.9958,-91.2375 240.2538,-81.3801"/>
<polygon fill="#191970" stroke="#191970" points="242.3174,-84.2085 248.5526,-75.6427 238.3366,-78.4506 242.3174,-84.2085"/>
</g>
<!-- Node4 -->
<g id="node5" class="node">
<title>Node4</title>
<polygon fill="#ffffff" stroke="#bfbfbf" points="0,-56.5 0,-75.5 53,-75.5 53,-56.5 0,-56.5"/>
<text text-anchor="middle" x="26.5" y="-63.5" font-family="Helvetica,sans-Serif" font-size="10.00" fill="#000000">stdlib.h</text>
</g>
<!-- Node1&#45;&gt;Node4 -->
<g id="edge4" class="edge">
<title>Node1&#45;&gt;Node4</title>
<path fill="none" stroke="#191970" d="M154.8546,-112.3733C129.3036,-103.1419 90.5488,-89.1402 62.3091,-78.9375"/>
<polygon fill="#191970" stroke="#191970" points="63.3921,-75.6074 52.7978,-75.5011 61.0135,-82.1909 63.3921,-75.6074"/>
</g>
<!-- Node6 -->
<g id="node7" class="node">
<title>Node6</title>
<polygon fill="#ffffff" stroke="#bfbfbf" points="1396.5,-.5 1396.5,-19.5 1460.5,-19.5 1460.5,-.5 1396.5,-.5"/>
<text text-anchor="middle" x="1428.5" y="-7.5" font-family="Helvetica,sans-Serif" font-size="10.00" fill="#000000">odp_api.h</text>
</g>
<!-- Node5&#45;&gt;Node6 -->
<g id="edge6" class="edge">
<title>Node5&#45;&gt;Node6</title>
<path fill="none" stroke="#191970" d="M1464.8358,-56.2455C1458.6527,-48.3761 1449.7937,-37.101 1442.3711,-27.6542"/>
<polygon fill="#191970" stroke="#191970" points="1445.0068,-25.3435 1436.0764,-19.6427 1439.5025,-29.6683 1445.0068,-25.3435"/>
</g>
<!-- Node7&#45;&gt;Node8 -->
<g id="edge8" class="edge">
<title>Node7&#45;&gt;Node8</title>
<path fill="none" stroke="#191970" d="M638.7445,-112.2455C654.0761,-103.5731 676.7199,-90.7645 694.2916,-80.825"/>
<polygon fill="#191970" stroke="#191970" points="696.4724,-83.6126 703.4531,-75.6427 693.0259,-77.5198 696.4724,-83.6126"/>
</g>
<!-- Node9 -->
<g id="node10" class="node">
<title>Node9</title>
<polygon fill="#ffffff" stroke="#bfbfbf" points="734,-.5 734,-19.5 787,-19.5 787,-.5 734,-.5"/>
<text text-anchor="middle" x="760.5" y="-7.5" font-family="Helvetica,sans-Serif" font-size="10.00" fill="#000000">stdint.h</text>
</g>
<!-- Node8&#45;&gt;Node9 -->
<g id="edge9" class="edge">
<title>Node8&#45;&gt;Node9</title>
<path fill="none" stroke="#191970" d="M727.4675,-56.2455C733.0311,-48.4564 740.978,-37.3308 747.6829,-27.9439"/>
<polygon fill="#191970" stroke="#191970" points="750.648,-29.8144 753.6124,-19.6427 744.9519,-25.7457 750.648,-29.8144"/>
</g>
<!-- Node8&#45;&gt;Node10 -->
<g id="edge10" class="edge">
<title>Node8&#45;&gt;Node10</title>
<path fill="none" stroke="#191970" d="M683.3683,-56.3733C646.6733,-46.8598 590.4361,-32.2797 550.8349,-22.0127"/>
<polygon fill="#191970" stroke="#191970" points="551.7056,-18.6228 541.1472,-19.5011 549.9488,-25.3988 551.7056,-18.6228"/>
</g>
<!-- Node11&#45;&gt;Node6 -->
<g id="edge12" class="edge">
<title>Node11&#45;&gt;Node6</title>
<path fill="none" stroke="#191970" d="M925.6596,-57.2691C928.6472,-56.8149 931.6122,-56.3871 934.5,-56 1101.0696,-33.6705 1300.6909,-18.6576 1386.2255,-12.7793"/>
<polygon fill="#191970" stroke="#191970" points="1386.5831,-16.2631 1396.3221,-12.0915 1386.1073,-9.2793 1386.5831,-16.2631"/>
</g>
<!-- Node12&#45;&gt;Node6 -->
<g id="edge14" class="edge">
<title>Node12&#45;&gt;Node6</title>
<path fill="none" stroke="#191970" d="M1039.6729,-57.363C1042.6572,-56.8855 1045.6178,-56.427 1048.5,-56 1170.7396,-37.8916 1315.894,-21.8194 1386.1757,-14.3798"/>
<polygon fill="#191970" stroke="#191970" points="1386.8161,-17.8318 1396.3943,-13.3032 1386.0826,-10.8704 1386.8161,-17.8318"/>
</g>
<!-- Node13&#45;&gt;Node8 -->
<g id="edge16" class="edge">
<title>Node13&#45;&gt;Node8</title>
<path fill="none" stroke="#191970" d="M819.8713,-112.3733C800.6081,-103.3838 771.6514,-89.8706 749.9581,-79.7471"/>
<polygon fill="#191970" stroke="#191970" points="751.4015,-76.5584 740.8595,-75.5011 748.4413,-82.9017 751.4015,-76.5584"/>
</g>
<!-- Node14&#45;&gt;Node6 -->
<g id="edge18" class="edge">
<title>Node14&#45;&gt;Node6</title>
<path fill="none" stroke="#191970" d="M1161.8192,-56.8154C1224.5153,-45.8092 1328.334,-27.584 1386.2069,-17.4245"/>
<polygon fill="#191970" stroke="#191970" points="1386.8712,-20.8615 1396.1154,-15.6851 1385.6609,-13.9669 1386.8712,-20.8615"/>
</g>
<!-- Node15&#45;&gt;Node6 -->
<g id="edge20" class="edge">
<title>Node15&#45;&gt;Node6</title>
<path fill="none" stroke="#191970" d="M1266.1936,-56.3733C1299.5088,-46.8546 1350.576,-32.264 1386.5135,-21.9961"/>
<polygon fill="#191970" stroke="#191970" points="1387.5675,-25.3351 1396.2212,-19.2225 1385.6444,-18.6045 1387.5675,-25.3351"/>
</g>
<!-- Node16&#45;&gt;Node5 -->
<g id="edge23" class="edge">
<title>Node16&#45;&gt;Node5</title>
<path fill="none" stroke="#191970" d="M1341.6612,-112.3733C1367.7067,-103.1419 1407.2116,-89.1402 1435.9979,-78.9375"/>
<polygon fill="#191970" stroke="#191970" points="1437.437,-82.1408 1445.6933,-75.5011 1435.0985,-75.5429 1437.437,-82.1408"/>
</g>
<!-- Node16&#45;&gt;Node6 -->
<g id="edge22" class="edge">
<title>Node16&#45;&gt;Node6</title>
<path fill="none" stroke="#191970" d="M1325.3939,-112.3039C1335.6355,-103.1123 1351.319,-88.8393 1364.5,-76 1381.164,-59.768 1399.5983,-40.6254 1412.3857,-27.148"/>
<polygon fill="#191970" stroke="#191970" points="1415.2269,-29.2372 1419.5515,-19.5651 1410.1393,-24.4293 1415.2269,-29.2372"/>
</g>
<!-- Node17 -->
<g id="node18" class="node">
<title>Node17</title>
<polygon fill="#ffffff" stroke="#bfbfbf" points="1303,-56.5 1303,-75.5 1356,-75.5 1356,-56.5 1303,-56.5"/>
<text text-anchor="middle" x="1329.5" y="-63.5" font-family="Helvetica,sans-Serif" font-size="10.00" fill="#000000">string.h</text>
</g>
<!-- Node16&#45;&gt;Node17 -->
<g id="edge24" class="edge">
<title>Node16&#45;&gt;Node17</title>
<path fill="none" stroke="#191970" d="M1317.1128,-112.2455C1319.0916,-104.8579 1321.8744,-94.4689 1324.3012,-85.4087"/>
<polygon fill="#191970" stroke="#191970" points="1327.7105,-86.2078 1326.9171,-75.6427 1320.9489,-84.3966 1327.7105,-86.2078"/>
</g>
<!-- Node18&#45;&gt;Node6 -->
<g id="edge26" class="edge">
<title>Node18&#45;&gt;Node6</title>
<path fill="none" stroke="#191970" d="M1582.8668,-112.0725C1580.0098,-97.7676 1572.7813,-71.3907 1556.5,-56 1533.067,-33.8489 1498.2129,-22.2408 1470.7895,-16.2308"/>
<polygon fill="#191970" stroke="#191970" points="1471.1771,-12.7385 1460.6823,-14.1912 1469.7924,-19.6002 1471.1771,-12.7385"/>
</g>
<!-- Node19&#45;&gt;Node8 -->
<g id="edge29" class="edge">
<title>Node19&#45;&gt;Node8</title>
<path fill="none" stroke="#191970" d="M967.6106,-112.4369C915.9673,-102.7321 836.0174,-87.708 781.1251,-77.3926"/>
<polygon fill="#191970" stroke="#191970" points="781.6539,-73.9308 771.1795,-75.5237 780.3611,-80.8104 781.6539,-73.9308"/>
</g>
<!-- Node19&#45;&gt;Node9 -->
<g id="edge28" class="edge">
<title>Node19&#45;&gt;Node9</title>
<path fill="none" stroke="#191970" d="M960.4113,-112.4609C910.8281,-103.6049 843.937,-89.7519 820.5,-76 800.3699,-64.1885 783.1455,-43.4079 772.383,-28.3134"/>
<polygon fill="#191970" stroke="#191970" points="775.0822,-26.06 766.5486,-19.7808 769.3038,-30.0111 775.0822,-26.06"/>
</g>
<!-- Node20&#45;&gt;Node8 -->
<g id="edge31" class="edge">
<title>Node20&#45;&gt;Node8</title>
<path fill="none" stroke="#191970" d="M480.8525,-112.4369C530.8322,-102.7522 608.1498,-87.7703 661.3742,-77.4569"/>
<polygon fill="#191970" stroke="#191970" points="662.1995,-80.8622 671.3511,-75.5237 660.8678,-73.99 662.1995,-80.8622"/>
</g>
<!-- Node21&#45;&gt;Node6 -->
<g id="edge33" class="edge">
<title>Node21&#45;&gt;Node6</title>
<path fill="none" stroke="#191970" d="M1689.8306,-112.2823C1665.6629,-98.4708 1619.2145,-72.9607 1577.5,-56 1542.2375,-41.6626 1500.7621,-29.198 1470.536,-20.874"/>
<polygon fill="#191970" stroke="#191970" points="1471.3098,-17.4574 1460.7419,-18.2131 1469.4745,-24.2126 1471.3098,-17.4574"/>
</g>
<!-- Node22&#45;&gt;Node6 -->
<g id="edge36" class="edge">
<title>Node22&#45;&gt;Node6</title>
<path fill="none" stroke="#191970" d="M1794.2716,-112.4709C1754.2679,-99.1077 1678.6895,-74.3785 1613.5,-56 1564.8749,-42.2914 1508.461,-28.5757 1470.8359,-19.7356"/>
<polygon fill="#191970" stroke="#191970" points="1471.2783,-16.2447 1460.744,-17.3756 1469.6843,-23.0608 1471.2783,-16.2447"/>
</g>
<!-- Node24 -->
<g id="node25" class="node">
<title>Node24</title>
<g id="a_node25"><a xlink:href="pthread_8h.html" target="_top" xlink:title="ODP Linux helper for pthreads. ">
<polygon fill="#ffffff" stroke="#000000" points="1915,-56.5 1915,-75.5 1978,-75.5 1978,-56.5 1915,-56.5"/>
<text text-anchor="middle" x="1946.5" y="-63.5" font-family="Helvetica,sans-Serif" font-size="10.00" fill="#000000">pthread.h</text>
</a>
</g>
</g>
<!-- Node23&#45;&gt;Node24 -->
<g id="edge39" class="edge">
<title>Node23&#45;&gt;Node24</title>
<path fill="none" stroke="#191970" d="M1941.2332,-112.2455C1939.8221,-104.9382 1939.4179,-94.6944 1940.0205,-85.7046"/>
<polygon fill="#191970" stroke="#191970" points="1943.5111,-85.9945 1941.2549,-75.6427 1936.5632,-85.1421 1943.5111,-85.9945"/>
</g>
<!-- Node25 -->
<g id="node26" class="node">
<title>Node25</title>
<polygon fill="#ffffff" stroke="#bfbfbf" points="1996,-56.5 1996,-75.5 2053,-75.5 2053,-56.5 1996,-56.5"/>
<text text-anchor="middle" x="2024.5" y="-63.5" font-family="Helvetica,sans-Serif" font-size="10.00" fill="#000000">getopt.h</text>
</g>
<!-- Node23&#45;&gt;Node25 -->
<g id="edge41" class="edge">
<title>Node23&#45;&gt;Node25</title>
<path fill="none" stroke="#191970" d="M1960.0866,-112.2455C1971.8305,-103.814 1989.0199,-91.4729 2002.6882,-81.6598"/>
<polygon fill="#191970" stroke="#191970" points="2004.9871,-84.3179 2011.0691,-75.6427 2000.9046,-78.6316 2004.9871,-84.3179"/>
</g>
<!-- Node26 -->
<g id="node27" class="node">
<title>Node26</title>
<polygon fill="#ffffff" stroke="#bfbfbf" points="1824.5,-56.5 1824.5,-75.5 1896.5,-75.5 1896.5,-56.5 1824.5,-56.5"/>
<text text-anchor="middle" x="1860.5" y="-63.5" font-family="Helvetica,sans-Serif" font-size="10.00" fill="#000000">sys/types.h</text>
</g>
<!-- Node23&#45;&gt;Node26 -->
<g id="edge42" class="edge">
<title>Node23&#45;&gt;Node26</title>
<path fill="none" stroke="#191970" d="M1931.5199,-112.2455C1918.3249,-103.6534 1898.8949,-91.0014 1883.6921,-81.1018"/>
<polygon fill="#191970" stroke="#191970" points="1885.5983,-78.1665 1875.3084,-75.6427 1881.7785,-84.0325 1885.5983,-78.1665"/>
</g>
<!-- Node24&#45;&gt;Node23 -->
<g id="edge40" class="edge">
<title>Node24&#45;&gt;Node23</title>
<path fill="none" stroke="#191970" d="M1951.7451,-75.6427C1953.1665,-82.9199 1953.581,-93.155 1952.9887,-102.1575"/>
<polygon fill="#191970" stroke="#191970" points="1949.4947,-101.8972 1951.7668,-112.2455 1956.4439,-102.739 1949.4947,-101.8972"/>
</g>
<!-- Node27&#45;&gt;Node5 -->
<g id="edge45" class="edge">
<title>Node27&#45;&gt;Node5</title>
<path fill="none" stroke="#191970" d="M1465.8935,-112.2455C1466.9374,-104.9382 1468.4008,-94.6944 1469.6851,-85.7046"/>
<polygon fill="#191970" stroke="#191970" points="1473.173,-86.0372 1471.1225,-75.6427 1466.2434,-85.0472 1473.173,-86.0372"/>
</g>
<!-- Node27&#45;&gt;Node6 -->
<g id="edge44" class="edge">
<title>Node27&#45;&gt;Node6</title>
<path fill="none" stroke="#191970" d="M1491.5624,-112.405C1519.4568,-100.9416 1556.7499,-80.2412 1540.5,-56 1524.9664,-32.8273 1495.4378,-21.3181 1470.5995,-15.607"/>
<polygon fill="#191970" stroke="#191970" points="1471.149,-12.1469 1460.649,-13.5613 1469.7393,-19.0035 1471.149,-12.1469"/>
</g>
</g>
</svg>
