<?xml version="1.0" encoding="UTF-8" standalone="no"?>
<!DOCTYPE svg PUBLIC "-//W3C//DTD SVG 1.1//EN"
 "http://www.w3.org/Graphics/SVG/1.1/DTD/svg11.dtd">
<!-- Generated by graphviz version 2.40.1 (20161225.0304)
 -->
<!-- Title: odph_debug.h Pages: 1 -->
<svg width="296pt" height="84pt"
 viewBox="0.00 0.00 295.50 84.00" xmlns="http://www.w3.org/2000/svg" xmlns:xlink="http://www.w3.org/1999/xlink">
<g id="graph0" class="graph" transform="scale(1 1) rotate(0) translate(4 80)">
<title>odph_debug.h</title>
<polygon fill="#ffffff" stroke="transparent" points="-4,4 -4,-80 291.5,-80 291.5,4 -4,4"/>
<!-- Node0 -->
<g id="node1" class="node">
<title>Node0</title>
<polygon fill="#bfbfbf" stroke="#000000" points="148.5,-56.5 148.5,-75.5 233.5,-75.5 233.5,-56.5 148.5,-56.5"/>
<text text-anchor="middle" x="191" y="-63.5" font-family="Helvetica,sans-Serif" font-size="10.00" fill="#000000">odph_debug.h</text>
</g>
<!-- Node1 -->
<g id="node2" class="node">
<title>Node1</title>
<polygon fill="#ffffff" stroke="#bfbfbf" points="0,-.5 0,-19.5 148,-19.5 148,-.5 0,-.5"/>
<text text-anchor="middle" x="74" y="-7.5" font-family="Helvetica,sans-Serif" font-size="10.00" fill="#000000">odp/autoheader_external.h</text>
</g>
<!-- Node0&#45;&gt;Node1 -->
<g id="edge1" class="edge">
<title>Node0&#45;&gt;Node1</title>
<path fill="none" stroke="#191970" d="M170.887,-56.3733C152.1897,-47.4241 124.1256,-33.9917 103.0066,-23.8835"/>
<polygon fill="#191970" stroke="#191970" points="104.3817,-20.6614 93.8506,-19.5011 101.3595,-26.9755 104.3817,-20.6614"/>
</g>
<!-- Node2 -->
<g id="node3" class="node">
<title>Node2</title>
<polygon fill="#ffffff" stroke="#bfbfbf" points="166,-.5 166,-19.5 216,-19.5 216,-.5 166,-.5"/>
<text text-anchor="middle" x="191" y="-7.5" font-family="Helvetica,sans-Serif" font-size="10.00" fill="#000000">stdio.h</text>
</g>
<!-- Node0&#45;&gt;Node2 -->
<g id="edge2" class="edge">
<title>Node0&#45;&gt;Node2</title>
<path fill="none" stroke="#191970" d="M191,-56.2455C191,-48.9382 191,-38.6944 191,-29.7046"/>
<polygon fill="#191970" stroke="#191970" points="194.5001,-29.6426 191,-19.6427 187.5001,-29.6427 194.5001,-29.6426"/>
</g>
<!-- Node3 -->
<g id="node4" class="node">
<title>Node3</title>
<polygon fill="#ffffff" stroke="#bfbfbf" points="234.5,-.5 234.5,-19.5 287.5,-19.5 287.5,-.5 234.5,-.5"/>
<text text-anchor="middle" x="261" y="-7.5" font-family="Helvetica,sans-Serif" font-size="10.00" fill="#000000">stdlib.h</text>
</g>
<!-- Node0&#45;&gt;Node3 -->
<g id="edge3" class="edge">
<title>Node0&#45;&gt;Node3</title>
<path fill="none" stroke="#191970" d="M203.1931,-56.2455C213.6321,-47.8943 228.8655,-35.7076 241.074,-25.9408"/>
<polygon fill="#191970" stroke="#191970" points="243.3244,-28.6227 248.9467,-19.6427 238.9515,-23.1566 243.3244,-28.6227"/>
</g>
</g>
</svg>
